name C:\Users\u0101727\Documents\MyRepositories\upper-imu-dc\Results\main_tracking\Case_40\FLX01_linearAccelerations_bodyFrame.mot
datacolumns 4
datarows 70
range 0.51000000 1.20000000
endheader 
time	radius_imu_x	radius_imu_y	radius_imu_z	
          0.51000000	         -6.66602456	          9.87661912	          3.44333282	
          0.52000000	         -4.73110795	          9.76395171	          2.69437565	
          0.53000000	         -3.42623103	          9.77918897	          2.06762899	
          0.54000000	         -2.49511091	          9.81653202	          1.50508234	
          0.55000000	         -1.46901117	          9.85917312	          0.98556149	
          0.56000000	         -0.85864223	          9.77089200	          0.73088158	
          0.57000000	         -1.53812550	          9.87022174	          0.88456807	
          0.58000000	         -0.12078755	          9.80426503	          0.58626591	
          0.59000000	         -1.46026696	          9.81194602	          1.01267288	
          0.60000000	         -1.44126985	          9.76281731	          1.04542431	
          0.61000000	         -1.47465756	          9.70597708	          0.89142921	
          0.62000000	         -1.57501770	          9.60631987	          0.99366006	
          0.63000000	         -2.79067908	          9.66128207	          1.71515011	
          0.64000000	         -3.28056282	          9.66942734	          2.36221814	
          0.65000000	         -4.40049998	          9.81577477	          3.00979630	
          0.66000000	         -4.41009383	          9.77217936	          3.06582500	
          0.67000000	         -4.91186662	          9.83052729	          3.00768355	
          0.68000000	         -5.44415681	          9.92257669	          2.88939802	
          0.69000000	         -5.94058429	         10.02303934	          2.71732150	
          0.70000000	         -6.36967287	         10.11624742	          2.48477616	
          0.71000000	         -6.71015498	         10.19975719	          2.19750017	
          0.72000000	         -6.93954904	         10.27850281	          1.87063972	
          0.73000000	         -7.04399777	         10.36186502	          1.52536357	
          0.74000000	         -7.02324114	         10.46039015	          1.18458216	
          0.75000000	         -6.89013995	         10.58168172	          0.86861048	
          0.76000000	         -6.66747539	         10.72666108	          0.59206832	
          0.77000000	         -6.38417897	         10.88851395	          0.36319570	
          0.78000000	         -6.07075276	         11.05449215	          0.18511324	
          0.79000000	         -5.75408267	         11.20918757	          0.05778650	
          0.80000000	         -5.45361129	         11.33812109	         -0.02038460	
          0.81000000	         -5.18013864	         11.43118871	         -0.05190589	
          0.82000000	         -4.93666068	         11.48573700	         -0.04042550	
          0.83000000	         -4.72017443	         11.50790640	          0.00834419	
          0.84000000	         -4.52394295	         11.51206321	          0.08588984	
          0.85000000	         -4.34053625	         11.51550205	          0.17883211	
          0.86000000	         -4.16557634	         11.54287889	          0.27491899	
          0.87000000	         -4.00028753	         11.58914930	          0.33579071	
          0.88000000	         -3.94407707	         11.65501401	          0.42552369	
          0.89000000	         -3.91979000	         11.76304020	          0.48522155	
          0.90000000	         -3.91187742	         11.90130383	          0.52286126	
          0.91000000	         -3.91032020	         12.07351189	          0.55525564	
          0.92000000	         -3.92122165	         12.26103911	          0.59240275	
          0.93000000	         -3.95302738	         12.45415884	          0.64218420	
          0.94000000	         -4.01491209	         12.64090361	          0.70738357	
          0.95000000	         -4.11106424	         12.81018286	          0.78420511	
          0.96000000	         -4.23545007	         12.95239309	          0.86351664	
          0.97000000	         -4.36663849	         13.06367465	          0.93508392	
          0.98000000	         -4.47197372	         13.14977058	          0.99390356	
          0.99000000	         -4.51247086	         13.21949396	          1.04326163	
          1.00000000	         -4.45628804	         13.30102235	          1.09392884	
          1.01000000	         -4.30905885	         13.40203245	          1.15420333	
          1.02000000	         -4.09357128	         13.52740529	          1.22849377	
          1.03000000	         -3.84474958	         13.67295074	          1.32103646	
          1.04000000	         -3.59545623	         13.82502291	          1.42840483	
          1.05000000	         -3.37431989	         13.97027125	          1.54510898	
          1.06000000	         -3.20249975	         14.09689308	          1.66296175	
          1.07000000	         -3.09383449	         14.20334431	          1.77279363	
          1.08000000	         -3.05256540	         14.29408782	          1.86553584	
          1.09000000	         -3.06858085	         14.38072582	          1.93337657	
          1.10000000	         -3.11816465	         14.47852011	          1.97258182	
          1.11000000	         -3.17359559	         14.60054561	          1.98314444	
          1.12000000	         -3.20948810	         14.75209266	          1.97125841	
          1.13000000	         -3.20981765	         14.93111118	          1.94620923	
          1.14000000	         -3.16838200	         15.12911986	          1.91974583	
          1.15000000	         -3.08937649	         15.33347002	          1.90267308	
          1.16000000	         -2.98349241	         15.53085270	          1.90320203	
          1.17000000	         -2.85827992	         15.70861286	          1.92641428	
          1.18000000	         -2.71003742	         15.85750361	          1.97560727	
          1.19000000	         -2.52085652	         15.97211956	          2.05190478	
          1.20000000	         -2.25748087	         16.05279616	          2.15522722	
